# xmcd
#
# Track frame offsets:
#	150
#	15802
#	34660
#	50179
#
# Disc length: 915 seconds
#
# Revision: 0
# Processed by: cddbd v1.5.2PL0 Copyright (c) Steve Scherf et al.
# Submitted via: dBpowerAMP V4.0
#
DISCID=26039104
DTITLE=Tohoshinki - Trick04-Close To You
DYEAR=2008
DGENRE=JPop
TTITLE0=Close To You
TTITLE1=Crazy Life
TTITLE2=Close To You(less vocal)
TTITLE3=Crazy Life(less vocal)
EXTD=
EXTT0=
EXTT1=
EXTT2=
EXTT3=
PLAYORDER=
